# Blender v2.92.0 OBJ File: ''
# www.blender.org
mtllib untitled.mtl
o Icosphere.002_Icosphere.005
v 0.399585 0.484132 -0.285607
v 0.182088 0.526501 -0.481467
v 0.046875 0.934519 -0.102826
v 0.083907 0.927305 -0.069478
v -0.363740 0.525571 -0.320850
v -0.440355 0.482700 -0.038438
v -0.059105 0.927061 -0.027394
v -0.046060 0.934360 -0.075478
v 0.156344 0.525570 0.438782
v 0.384454 0.483584 0.255300
v 0.081331 0.927212 0.022620
v 0.042491 0.934360 0.053860
v -0.110172 0.483584 -0.467150
v -0.002887 0.927212 -0.100388
v -0.134659 0.482700 0.408061
v -0.007056 0.927061 0.048629
v 0.503514 0.526501 -0.011993
v 0.101602 0.934519 -0.022891
v -0.379653 0.524998 0.247899
v -0.048770 0.934263 0.021359
v -0.231659 1.716685 -0.031366
v -0.198717 1.739639 0.124021
v -0.017723 2.186991 0.000104
v -0.023057 2.183274 -0.025059
v 0.003807 2.183274 0.014179
v 0.029380 2.187041 0.016878
v 0.049426 2.183352 0.000754
v 0.059889 2.187123 -0.022735
v 0.050756 2.183400 -0.046780
v 0.031642 2.187123 -0.063992
v 0.005959 2.183352 -0.062734
v -0.016325 2.187041 -0.049877
v 0.215943 1.717164 0.128038
v 0.280553 1.740454 -0.017015
v 0.106124 1.740454 -0.271785
v -0.052478 1.717164 -0.264016
v -0.065766 1.716685 0.210937
v 0.224154 1.717461 -0.165498
v -0.190081 1.739949 -0.184623
v 0.092153 1.739949 0.227608
v 0.141952 0.987516 0.392480
v 0.347100 0.949756 0.227468
v 0.078722 1.648880 0.022157
v 0.040850 1.655851 0.052620
v -0.325778 0.987516 -0.290685
v -0.394681 0.948961 -0.036702
v -0.058218 1.648733 -0.026611
v -0.045497 1.655851 -0.073499
v 0.360707 0.950249 -0.258990
v 0.165104 0.988353 -0.435133
v 0.045124 1.656005 -0.100165
v 0.081234 1.648971 -0.067647
v -0.340089 0.987001 0.220811
v -0.119758 0.948961 0.364851
v -0.007464 1.648733 0.047519
v -0.048139 1.655756 0.020928
v -0.097735 0.949756 -0.422257
v -0.003399 1.648880 -0.097788
v 0.454174 0.988353 -0.012918
v 0.098489 1.656005 -0.022220
v 0.141009 0.169673 0.067159
v 0.065452 0.183580 0.127934
v 0.075051 0.013844 0.157417
v 0.165327 0.013565 0.084800
v -0.030936 0.169380 0.117758
v -0.040169 0.013215 0.145272
v -0.132191 0.169380 -0.030135
v -0.106814 0.183580 -0.123678
v -0.130829 0.013844 -0.143291
v -0.161182 0.013215 -0.031479
v -0.022825 0.169673 -0.172136
v -0.030475 0.013566 -0.201189
v -0.112085 0.183390 0.064708
v -0.137129 0.013617 0.081854
v 0.073979 0.183888 -0.176878
v 0.085242 0.014213 -0.206872
v 0.146020 0.169854 -0.112004
v 0.171317 0.013782 -0.129324
v 0.180445 0.183888 -0.021376
v 0.212481 0.014213 -0.021027
v 0.057505 0.481312 -0.131516
v 0.108045 0.471467 -0.086004
v -0.087131 0.471134 -0.028570
v -0.069328 0.481096 -0.094193
v 0.104529 0.471339 0.039686
v 0.051523 0.481096 0.082322
v -0.010407 0.471339 -0.128189
v -0.016097 0.471134 0.075183
v 0.132195 0.481312 -0.022425
v -0.073026 0.480963 0.037966
v -0.059214 0.936091 -0.027319
v -0.046169 0.943390 -0.075404
v 0.081221 0.936241 0.022694
v 0.042382 0.943390 0.053935
v -0.002996 0.936241 -0.100313
v -0.007165 0.936091 0.048704
v 0.083798 0.936334 -0.069403
v 0.101493 0.943548 -0.022816
v -0.048879 0.943292 0.021434
v 0.046766 0.943548 -0.102751
v -0.048582 1.677855 -0.075772
v -0.004490 1.670555 -0.101211
v 0.041853 1.677855 0.056318
v -0.008748 1.670401 0.050976
v 0.084149 1.670650 -0.069644
v 0.102221 1.678017 -0.022066
v -0.051349 1.677756 0.023126
v -0.061905 1.670401 -0.026664
v 0.081518 1.670555 0.024413
v 0.046330 1.678017 -0.103701
v 0.052758 0.011433 0.081649
v 0.133537 0.011650 -0.023237
v 0.058748 0.011650 -0.132474
v -0.068254 0.011433 -0.095102
v -0.071957 0.011299 0.037235
v 0.020967 0.010585 -0.026387
vn 0.5740 0.6511 -0.4966
vn -0.7534 0.6490 -0.1059
vn 0.5453 0.6501 0.5292
vn -0.2961 0.6501 -0.6998
vn -0.1738 0.6490 0.7407
vn 0.6706 0.6511 -0.3555
vn -0.7581 0.6489 0.0649
vn 0.6496 0.6504 0.3938
vn -0.1321 0.6504 -0.7480
vn -0.3347 0.6489 0.6833
vn -0.9055 0.4031 0.1324
vn 0.0881 0.9961 0.0035
vn -0.0723 0.9959 -0.0537
vn 0.0239 0.9959 0.0869
vn 0.8092 0.4052 0.4255
vn -0.1040 0.4052 -0.9083
vn -0.4510 0.4031 0.7963
vn 0.6539 0.4060 -0.6384
vn -0.8967 0.4034 -0.1821
vn -0.8967 0.4034 -0.1820
vn -0.8968 0.4034 -0.1820
vn 0.6172 0.4047 0.6747
vn -0.4058 0.4047 -0.8195
vn -0.1546 0.4034 0.9019
vn 0.8317 0.4060 -0.3788
vn 0.6126 0.4299 0.6632
vn -0.8863 0.4287 -0.1754
vn 0.6487 0.4312 -0.6271
vn -0.4415 0.4284 0.7884
vn -0.1071 0.4304 -0.8963
vn 0.7968 0.4304 0.4240
vn -0.8947 0.4284 0.1264
vn 0.8193 0.4312 -0.3780
vn -0.1571 0.4287 0.8897
vn -0.3967 0.4299 -0.8110
vn 0.2923 0.9352 -0.2001
vn 0.0286 0.9961 -0.0834
vn -0.1018 0.9348 -0.3404
vn -0.3570 0.9341 -0.0090
vn -0.0753 0.9958 0.0515
vn -0.1207 0.9341 0.3361
vn 0.2805 0.9348 0.2180
vn 0.6292 0.1726 0.7578
vn 0.6237 0.1770 0.7614
vn 0.6166 0.1826 0.7658
vn -0.1188 0.1686 0.9785
vn -0.1123 0.1730 0.9785
vn -0.1273 0.1628 0.9784
vn -0.9552 0.1686 -0.2432
vn -0.9529 0.1730 -0.2492
vn -0.9498 0.1785 -0.2568
vn -0.4789 0.1726 -0.8607
vn -0.4842 0.1770 -0.8568
vn -0.4719 0.1668 -0.8657
vn -0.5270 0.1672 0.8333
vn -0.5319 0.1715 0.8292
vn -0.5382 0.1770 0.8240
vn -0.0642 0.1749 -0.9825
vn -0.0576 0.1794 -0.9821
vn -0.0492 0.1851 -0.9815
vn 0.6704 0.1774 -0.7205
vn 0.6650 0.1819 -0.7244
vn 0.6775 0.1714 -0.7153
vn 0.9142 0.1774 -0.3644
vn 0.9159 0.1819 -0.3579
vn 0.9179 0.1876 -0.3496
vn 0.8927 0.1749 0.4153
vn 0.8947 0.1794 0.4090
vn 0.8900 0.1689 0.4235
vn -0.9675 0.1672 0.1899
vn -0.9655 0.1715 0.1960
vn -0.9700 0.1614 0.1818
vn 0.6776 0.1474 -0.7205
vn -0.9603 0.1446 -0.2386
vn 0.6362 0.1459 0.7576
vn -0.4762 0.1459 -0.8672
vn -0.1249 0.1446 0.9816
vn 0.9168 0.1474 -0.3711
vn -0.9721 0.1442 0.1848
vn 0.8946 0.1466 0.4220
vn -0.0699 0.1466 -0.9867
vn -0.5239 0.1442 0.8395
vn -0.9647 -0.0095 -0.2632
vn 0.6269 0.0011 0.7791
vn 0.6269 0.0012 0.7791
vn -0.4996 0.0011 -0.8663
vn -0.4996 0.0012 -0.8662
vn -0.1036 -0.0095 0.9946
vn 0.9340 0.0142 -0.3570
vn -0.9778 -0.0135 0.2093
vn 0.9130 0.0076 0.4079
vn 0.9130 0.0078 0.4079
vn -0.0501 0.0077 -0.9987
vn -0.5488 -0.0136 0.8359
vn 0.6706 0.0143 -0.7417
vn 0.6706 0.0143 -0.7416
vn -0.5130 -0.1591 -0.8435
vn -0.5130 -0.1590 -0.8435
vn -0.0800 -0.1617 0.9836
vn 0.9312 -0.1556 -0.3296
vn -0.9600 -0.1628 0.2276
vn 0.9113 -0.1572 0.3807
vn -0.0253 -0.1572 -0.9872
vn -0.5594 -0.1628 0.8127
vn 0.6441 -0.1556 -0.7489
vn -0.9459 -0.1617 -0.2812
vn 0.6008 -0.1590 0.7834
vn 0.6364 0.1668 0.7531
vn -0.1041 0.1785 0.9784
vn -0.9582 0.1628 -0.2352
vn -0.4910 0.1826 -0.8518
vn -0.5203 0.1614 0.8386
vn -0.0730 0.1689 -0.9829
vn 0.6580 0.1876 -0.7293
vn 0.9119 0.1714 -0.3729
vn 0.8972 0.1851 0.4009
vn -0.9629 0.1770 0.2037
vn 0.6269 0.0013 0.7791
vn -0.9459 -0.1616 -0.2812
vn 0.6009 -0.1590 0.7834
vn -0.1565 -0.9874 -0.0214
vn -0.0587 -0.9872 -0.1484
vn -0.0279 -0.9871 -0.1574
vn -0.0668 -0.9875 0.1429
vn -0.1574 -0.9875 0.0106
vn 0.1367 -0.9871 0.0830
vn 0.1171 -0.9872 0.1084
vn -0.0366 -0.9874 0.1536
vn 0.1230 -0.9870 -0.1037
vn 0.1412 -0.9870 -0.0772
vn -0.0632 -0.9871 0.1473
vn -0.1602 -0.9871 0.0057
vn 0.1360 -0.9867 0.0886
vn 0.1224 -0.9868 0.1063
vn -0.0422 -0.9871 0.1547
vn -0.0422 -0.9871 0.1548
vn 0.1282 -0.9866 -0.1013
vn 0.1408 -0.9866 -0.0829
vn -0.1595 -0.9871 -0.0166
vn -0.0549 -0.9868 -0.1525
vn -0.0334 -0.9867 -0.1588
vn -0.0334 -0.9867 -0.1589
vn 0.1063 -0.9444 0.3111
vn 0.3298 -0.9438 0.0209
vn -0.2630 -0.9448 0.1953
vn 0.3305 -0.9438 -0.0043
vn 0.3306 -0.9438 -0.0043
vn 0.1236 -0.9438 -0.3066
vn -0.2772 -0.9448 0.1746
vn 0.0999 -0.9438 -0.3151
vn 0.0999 -0.9438 -0.3150
vn -0.2516 -0.9444 -0.2116
vn 0.0821 -0.9444 0.3182
vn -0.2670 -0.9444 -0.1917
vn -0.0669 -0.9875 0.1429
vn 0.0822 -0.9444 0.3182
vn 0.0022 -0.9995 0.0312
vn 0.0322 -0.9994 0.0082
vn 0.0197 -0.9994 -0.0274
vn -0.0181 -0.9995 -0.0265
vn -0.0289 -0.9995 0.0097
vn -0.0144 -0.9999 -0.0014
vn -0.0085 -1.0000 -0.0013
vn -0.0203 -0.9998 -0.0016
vn -0.0283 -0.9995 -0.0133
vn -0.0030 -0.9999 -0.0162
vn -0.0014 -0.9999 -0.0105
vn -0.0047 -0.9998 -0.0218
vn 0.0040 -0.9994 -0.0330
vn 0.0145 -0.9998 -0.0099
vn 0.0096 -0.9999 -0.0066
vn 0.0193 -0.9997 -0.0132
vn 0.0327 -0.9994 -0.0084
vn 0.0140 -0.9999 0.0087
vn 0.0093 -0.9999 0.0051
vn 0.0186 -0.9998 0.0123
vn 0.0182 -0.9995 0.0265
vn -0.0039 -0.9999 0.0139
vn -0.0019 -1.0000 0.0084
vn -0.0059 -0.9998 0.0195
vn -0.0195 -0.9995 0.0235
usemtl PLANT.005
s 1
f 2//1 4//1 1//1
f 5//2 7//2 8//2
f 9//3 11//3 12//3
f 5//4 14//4 13//4
f 9//5 16//5 15//5
f 17//6 4//6 18//6
f 19//7 7//7 6//7
f 17//8 11//8 10//8
f 2//9 14//9 3//9
f 19//10 16//10 20//10
f 22//11 24//11 21//11
f 24//12 27//13 31//14
f 34//15 27//15 33//15
f 35//16 31//16 30//16
f 22//17 25//17 23//17
f 35//18 29//18 38//18
f 39//19 24//20 32//21
f 40//22 27//22 26//22
f 39//23 31//23 36//23
f 40//24 25//24 37//24
f 34//25 29//25 28//25
f 41//26 43//26 44//26
f 45//27 47//27 48//27
f 50//28 52//28 49//28
f 53//29 55//29 56//29
f 50//30 58//30 51//30
f 59//31 43//31 42//31
f 53//32 47//32 46//32
f 59//33 52//33 60//33
f 41//34 55//34 54//34
f 45//35 58//35 57//35
f 2//1 3//1 4//1
f 5//2 6//2 7//2
f 9//3 10//3 11//3
f 5//4 8//4 14//4
f 9//5 12//5 16//5
f 17//6 1//6 4//6
f 19//7 20//7 7//7
f 17//8 18//8 11//8
f 2//9 13//9 14//9
f 19//10 15//10 16//10
f 22//11 23//11 24//11
f 23//36 25//37 24//12
f 25//37 26//38 27//13
f 27//13 28//39 29//40
f 29//40 30//41 31//14
f 31//14 32//42 24//12
f 31//14 27//13 29//40
f 25//37 27//13 24//12
f 34//15 28//15 27//15
f 35//16 36//16 31//16
f 22//17 37//17 25//17
f 35//18 30//18 29//18
f 39//19 21//19 24//20
f 40//22 33//22 27//22
f 39//23 32//23 31//23
f 40//24 26//24 25//24
f 34//25 38//25 29//25
f 41//26 42//26 43//26
f 45//27 46//27 47//27
f 50//28 51//28 52//28
f 53//29 54//29 55//29
f 50//30 57//30 58//30
f 59//31 60//31 43//31
f 53//32 56//32 47//32
f 59//33 49//33 52//33
f 41//34 44//34 55//34
f 45//35 48//35 58//35
usemtl WOOD.005
f 61//43 63//44 64//45
f 65//46 63//47 62//48
f 67//49 69//50 70//51
f 71//52 69//53 68//54
f 65//55 74//56 66//57
f 71//58 76//59 72//60
f 77//61 76//62 75//63
f 77//64 80//65 78//66
f 61//67 80//68 79//69
f 67//70 74//71 73//72
f 75//73 82//73 77//73
f 68//74 83//74 84//74
f 62//75 85//75 86//75
f 68//76 87//76 71//76
f 62//77 88//77 65//77
f 79//78 82//78 89//78
f 73//79 83//79 67//79
f 79//80 85//80 61//80
f 75//81 87//81 81//81
f 73//82 88//82 90//82
f 8//83 91//83 92//83
f 12//84 93//85 94//84
f 8//86 95//87 14//87
f 12//88 96//88 16//88
f 18//89 97//89 98//89
f 20//90 91//90 7//90
f 18//91 93//92 11//92
f 3//93 95//93 100//93
f 20//94 96//94 99//94
f 3//95 97//96 4//96
f 48//97 102//98 58//98
f 44//99 104//99 55//99
f 60//100 105//100 106//100
f 56//101 108//101 47//101
f 60//102 109//102 43//102
f 51//103 102//103 110//103
f 56//104 104//104 107//104
f 51//105 105//105 52//105
f 48//106 108//106 101//106
f 44//107 109//107 103//107
f 61//43 62//108 63//44
f 65//46 66//109 63//47
f 67//49 68//110 69//50
f 71//52 72//111 69//53
f 65//55 73//112 74//56
f 71//58 75//113 76//59
f 77//61 78//114 76//62
f 77//64 79//115 80//65
f 61//67 64//116 80//68
f 67//70 70//117 74//71
f 75//73 81//73 82//73
f 68//74 67//74 83//74
f 62//75 61//75 85//75
f 68//76 84//76 87//76
f 62//77 86//77 88//77
f 79//78 77//78 82//78
f 73//79 90//79 83//79
f 79//80 89//80 85//80
f 75//81 71//81 87//81
f 73//82 65//82 88//82
f 8//83 7//83 91//83
f 12//84 11//118 93//85
f 8//86 92//86 95//87
f 12//88 94//88 96//88
f 18//89 4//89 97//89
f 20//90 99//90 91//90
f 18//91 98//91 93//92
f 3//93 14//93 95//93
f 20//94 16//94 96//94
f 3//95 100//95 97//96
f 48//97 101//97 102//98
f 44//99 103//99 104//99
f 60//100 52//100 105//100
f 56//101 107//101 108//101
f 60//102 106//102 109//102
f 51//103 58//103 102//103
f 56//104 55//104 104//104
f 51//105 110//105 105//105
f 48//106 47//119 108//106
f 44//107 43//120 109//107
usemtl PLANTDARC.005
f 90//121 15//121 19//121
f 81//122 1//122 82//122
f 84//123 6//123 5//123
f 86//124 10//124 9//124
f 84//125 13//125 87//125
f 86//126 15//126 88//126
f 89//127 1//127 17//127
f 90//128 6//128 83//128
f 89//129 10//129 85//129
f 81//130 13//130 2//130
f 94//131 42//131 41//131
f 92//132 57//132 95//132
f 94//133 54//133 96//133
f 98//134 49//134 59//134
f 99//135 46//136 91//135
f 98//137 42//137 93//137
f 100//138 57//138 50//138
f 99//139 54//139 53//139
f 100//140 49//140 97//140
f 92//141 46//142 45//142
f 103//143 37//143 104//143
f 106//144 38//144 34//144
f 107//145 21//145 108//145
f 106//146 33//147 109//146
f 110//148 36//148 35//148
f 107//149 37//149 22//149
f 110//150 38//150 105//151
f 101//152 21//152 39//152
f 103//153 33//153 40//153
f 101//154 36//154 102//154
f 90//121 88//121 15//121
f 81//122 2//122 1//122
f 84//123 83//123 6//123
f 86//124 85//155 10//124
f 84//125 5//125 13//125
f 86//126 9//126 15//126
f 89//127 82//127 1//127
f 90//128 19//128 6//128
f 89//129 17//129 10//129
f 81//130 87//130 13//130
f 94//131 93//131 42//131
f 92//132 45//132 57//132
f 94//133 41//133 54//133
f 98//134 97//134 49//134
f 99//135 53//136 46//136
f 98//137 59//137 42//137
f 100//138 95//138 57//138
f 99//139 96//139 54//139
f 100//140 50//140 49//140
f 92//141 91//141 46//142
f 103//143 40//143 37//143
f 106//144 105//144 38//144
f 107//145 22//145 21//145
f 106//146 34//147 33//147
f 110//148 102//148 36//148
f 107//149 104//149 37//149
f 110//150 35//150 38//150
f 101//152 108//152 21//152
f 103//153 109//156 33//153
f 101//154 39//154 36//154
usemtl WOODDARC.005
f 63//157 66//157 111//157
f 80//158 64//158 112//158
f 76//159 78//159 113//159
f 69//160 72//160 114//160
f 74//161 70//161 115//161
f 115//162 114//162 116//163
f 115//162 70//164 114//162
f 70//165 69//165 114//165
f 114//166 113//166 116//167
f 114//166 72//168 113//166
f 72//169 76//169 113//169
f 113//170 112//170 116//171
f 113//170 78//172 112//170
f 78//173 80//173 112//173
f 112//174 111//174 116//175
f 112//174 64//176 111//174
f 64//177 63//177 111//177
f 111//178 115//178 116//179
f 111//178 66//180 115//178
f 66//181 74//181 115//181
